HIERARCHY
ROOT hip
{
  OFFSET 0 0 0
  CHANNELS 6 Xposition Yposition Zposition Zrotation Yrotation Xrotation
  JOINT abdomen
  {
    OFFSET 0 20.6881 -0.73152
    CHANNELS 3 Zrotation Xrotation Yrotation
    JOINT chest
    {
      OFFSET 0 11.7043 -0.48768
      CHANNELS 3 Zrotation Xrotation Yrotation
      JOINT neck
      {
        OFFSET 0 22.1894 -2.19456
        CHANNELS 3 Zrotation Xrotation Yrotation
        JOINT head
        {
          OFFSET -0.24384 7.07133 1.2192
          CHANNELS 3 Zrotation Xrotation Yrotation
          JOINT leftEye
          {
            OFFSET 4.14528 8.04674 8.04672
            CHANNELS 3 Zrotation Xrotation Yrotation
            End Site
            {
              OFFSET 1 0 0
            }
          }
          JOINT rightEye
          {
            OFFSET -3.6576 8.04674 8.04672
            CHANNELS 3 Zrotation Xrotation Yrotation
            End Site
            {
              OFFSET 1 0 0
            }
          }
        }
      }
      JOINT rCollar
      {
        OFFSET -2.68224 19.2634 -4.8768
        CHANNELS 3 Zrotation Xrotation Yrotation
        JOINT rShldr
        {
          OFFSET -8.77824 -1.95073 1.46304
          CHANNELS 3 Zrotation Xrotation Yrotation
          JOINT rForeArm
          {
            OFFSET -28.1742 -1.7115 0.48768
            CHANNELS 3 Zrotation Xrotation Yrotation
            JOINT rHand
            {
              OFFSET -22.5879 0.773209 7.07136
              CHANNELS 3 Zrotation Xrotation Yrotation
              JOINT rThumb1
              {
                OFFSET -1.2192 -0.487915 3.41376
                CHANNELS 3 Zrotation Xrotation Yrotation
                JOINT rThumb2
                {
                  OFFSET -3.37035 -0.52449 3.41376
                  CHANNELS 3 Zrotation Xrotation Yrotation
                  End Site
                  {
                    OFFSET -1.78271 -1.18214 1.43049
                  }
                }
              }
              JOINT rIndex1
              {
                OFFSET -7.75947 0.938293 5.60832
                CHANNELS 3 Zrotation Xrotation Yrotation
                JOINT rIndex2
                {
                  OFFSET -2.54057 -0.884171 1.56538
                  CHANNELS 3 Zrotation Xrotation Yrotation
                  End Site
                  {
                    OFFSET -1.62519 -0.234802 1.16502
                  }
                }
              }
              JOINT rMid1
              {
                OFFSET -8.24714 1.18213 3.41376
                CHANNELS 3 Zrotation Xrotation Yrotation
                JOINT rMid2
                {
                  OFFSET -3.10165 -0.590103 1.0647
                  CHANNELS 3 Zrotation Xrotation Yrotation
                  End Site
                  {
                    OFFSET -2.48547 -0.328903 0.83742
                  }
                }
              }
              JOINT rRing1
              {
                OFFSET -8.82822 0.546677 1.51678
                CHANNELS 3 Zrotation Xrotation Yrotation
                JOINT rRing2
                {
                  OFFSET -2.60934 -0.819778 -0.0198488
                  CHANNELS 3 Zrotation Xrotation Yrotation
                  End Site
                  {
                    OFFSET -2.33842 -0.294052 0.168128
                  }
                }
              }
              JOINT rPinky1
              {
                OFFSET -8.27202 -0.0477905 -0.4584
                CHANNELS 3 Zrotation Xrotation Yrotation
                JOINT rPinky2
                {
                  OFFSET -1.82734 -0.647385 -0.700984
                  CHANNELS 3 Zrotation Xrotation Yrotation
                  End Site
                  {
                    OFFSET -1.69225 -0.51767 -0.607171
                  }
                }
              }
            }
          }
        }
      }
      JOINT lCollar
      {
        OFFSET 2.68224 19.2634 -4.8768
        CHANNELS 3 Zrotation Xrotation Yrotation
        JOINT lShldr
        {
          OFFSET 8.77824 -1.95073 1.46304
          CHANNELS 3 Zrotation Xrotation Yrotation
          JOINT lForeArm
          {
            OFFSET 28.1742 -1.7115 0.48768
            CHANNELS 3 Zrotation Xrotation Yrotation
            JOINT lHand
            {
              OFFSET 22.5879 0.773209 7.07136
              CHANNELS 3 Zrotation Xrotation Yrotation
              JOINT lThumb1
              {
                OFFSET 1.2192 -0.487915 3.41376
                CHANNELS 3 Zrotation Xrotation Yrotation
                JOINT lThumb2
                {
                  OFFSET 3.37035 -0.52449 3.41376
                  CHANNELS 3 Zrotation Xrotation Yrotation
                  End Site
                  {
                    OFFSET 1.78271 -1.18214 1.43049
                  }
                }
              }
              JOINT lIndex1
              {
                OFFSET 7.75947 0.938293 5.60832
                CHANNELS 3 Zrotation Xrotation Yrotation
                JOINT lIndex2
                {
                  OFFSET 2.54057 -0.884171 1.56538
                  CHANNELS 3 Zrotation Xrotation Yrotation
                  End Site
                  {
                    OFFSET 1.62519 -0.234802 1.16502
                  }
                }
              }
              JOINT lMid1
              {
                OFFSET 8.24714 1.18213 3.41376
                CHANNELS 3 Zrotation Xrotation Yrotation
                JOINT lMid2
                {
                  OFFSET 3.10165 -0.590103 1.0647
                  CHANNELS 3 Zrotation Xrotation Yrotation
                  End Site
                  {
                    OFFSET 2.48547 -0.328903 0.83742
                  }
                }
              }
              JOINT lRing1
              {
                OFFSET 8.82822 0.546677 1.51678
                CHANNELS 3 Zrotation Xrotation Yrotation
                JOINT lRing2
                {
                  OFFSET 2.60934 -0.819778 -0.0198488
                  CHANNELS 3 Zrotation Xrotation Yrotation
                  End Site
                  {
                    OFFSET 2.33842 -0.294052 0.168128
                  }
                }
              }
              JOINT lPinky1
              {
                OFFSET 8.27202 -0.0477905 -0.4584
                CHANNELS 3 Zrotation Xrotation Yrotation
                JOINT lPinky2
                {
                  OFFSET 1.82734 -0.647385 -0.700984
                  CHANNELS 3 Zrotation Xrotation Yrotation
                  End Site
                  {
                    OFFSET 1.69225 -0.51767 -0.607171
                  }
                }
              }
            }
          }
        }
      }
    }
  }
  JOINT rButtock
  {
    OFFSET -8.77824 4.35084 1.2192
    CHANNELS 3 Zrotation Xrotation Yrotation
    JOINT rThigh
    {
      OFFSET 0 -1.70687 -2.19456
      CHANNELS 3 Zrotation Xrotation Yrotation
      JOINT rShin
      {
        OFFSET 0 -36.8199 0.73152
        CHANNELS 3 Zrotation Xrotation Yrotation
        JOINT rFoot
        {
          OFFSET 0.73152 -45.1104 -5.12064
          CHANNELS 3 Zrotation Xrotation Yrotation
          End Site
          {
            OFFSET -1.1221 -3.69964 12.103
          }
        }
      }
    }
  }
  JOINT lButtock
  {
    OFFSET 8.77824 4.35084 1.2192
    CHANNELS 3 Zrotation Xrotation Yrotation
    JOINT lThigh
    {
      OFFSET 0 -1.70687 -2.19456
      CHANNELS 3 Zrotation Xrotation Yrotation
      JOINT lShin
      {
        OFFSET 0 -36.8199 0.73152
        CHANNELS 3 Zrotation Xrotation Yrotation
        JOINT lFoot
        {
          OFFSET -0.73152 -45.1104 -5.12064
          CHANNELS 3 Zrotation Xrotation Yrotation
          End Site
          {
            OFFSET 1.1221 -3.69964 12.103
          }
        }
      }
    }
  }
}
MOTION
Frames:	5
Frame Time:	0.00833333
8.4621 89.4249 63.199000000000005 -78.960564 37.342473 -73.283377 22.15811 33.763439 65.656296 -12.759979 -17.019955 -82.374514 -10.158129 19.30962 -37.388908 43.026117 -6.254156 5.487812 -0.003833 -0.0 0.001363 -0.003486 -0.0 0.003132 -157.403723 -18.227309 164.746793 -75.943545 53.420192 42.284433 40.783368 -73.259582 -45.812652 157.516847 -31.969443 141.35196 12.064684 -12.036574 -0.593315 -70.036288 32.931623 59.439627 -158.050665 -29.526406 122.571648 -164.675398 -25.009561 119.181451 -14.799388 32.049186 10.771251 -179.186123 -47.983991 141.624765 -0.140988 -5.958915 -1.881373 -155.807719 -18.483059 174.062131 17.154747 60.099848 12.750546 -129.231143 -29.092833 -126.378858 156.986398 -14.5075 -164.043806 -116.690952 35.921422 107.112311 118.920435 -22.135745 -97.730838 -176.030515 -44.233784 -145.984113 -3.650004 -3.631269 0.448362 139.427968 -43.670109 -121.517102 142.904069 -2.109547 -117.431297 160.246091 -10.011407 -119.12803 152.835307 14.773363 -138.519359 0.950789 11.666151 -2.341802 -0.004979 1.554841 -0.486738 -11.352769 -25.123143 3.013998 150.506893 30.766808 146.311266 -64.688445 83.475904 27.285692 -179.973353 75.750448 -0.022721 123.606865 7.205786 80.316574 -1.900002 6.799515 -115.123633 90.995123 29.852391 -10.964306 179.998412 75.748921 0.000823 -106.298649 37.596333 82.602489 -1.098365 -1.198174 -124.564082 -31.970236 -15.148227 29.531885
8.3245 89.29899999999999 64.7209 -78.896414 37.318454 -72.690892 19.367444 33.001881 90.970994 -16.975904 -10.762128 -104.746853 7.786946 27.868707 112.978083 -42.825092 4.472174 -145.611116 -0.002282 0.0 -0.000879 0.003397 -0.0 -0.001637 -154.031815 5.134081 159.890524 -124.541626 48.740875 89.647834 -124.80283 84.310813 173.667286 -7.581797 40.621705 3.754771 -169.65439 -7.33547 89.931614 -34.257979 -27.190931 5.859846 2.678517 -4.470133 -1.439658 9.699231 3.50259 -0.054778 8.414307 -26.420685 -3.094957 -130.65486 51.206843 119.652535 -0.026875 -2.027192 -0.637873 7.605803 26.591113 4.02871 -156.321819 53.519454 -150.094403 -122.436778 -35.175561 -119.703976 -1.924947 -13.504403 2.775948 -173.032748 -36.733001 -96.349546 -175.288422 54.679904 96.581277 11.343554 -8.032341 3.743961 177.63564 -15.216908 -89.582741 151.277827 6.640547 -80.61369 147.782462 -10.605915 -119.79181 169.098092 -29.510516 -118.579524 154.850842 9.859645 -139.903357 173.309667 -34.149083 -143.455507 0.004223 -0.322913 0.102872 -10.822669 -7.344449 0.959263 148.950648 24.947617 145.060183 -7.896309 16.281086 -2.215711 -179.997734 75.74948 -0.001835 130.339822 1.984964 -102.501529 -13.199593 -7.147711 -133.930641 -130.304438 -24.930244 138.736949 -179.947475 75.750411 -0.040526 -105.312992 36.171463 131.970466 7.249496 -7.602617 69.708616 -52.757431 43.909886 146.596796
8.503 89.0803 66.6854 -79.637551 37.752118 -74.222798 16.5398 34.820328 64.929029 -10.792471 -17.053689 -76.545621 -15.031639 25.913689 -79.734597 46.740119 25.929012 36.249838 7.5e-05 0.0 0.003138 7.5e-05 0.0 0.003138 -128.153947 56.232521 131.958085 34.222006 -10.23359 60.04845 32.780889 -82.615151 73.550856 -10.311518 46.549926 4.736801 -36.354291 28.135794 14.566548 15.944303 -14.802612 9.589734 -140.615797 1.615986 116.143749 -28.885907 46.976268 15.14665 0.025795 -0.077001 -0.014399 -173.994947 -36.423436 143.700493 0.004277 1.190839 0.373541 9.177729 12.330422 1.607859 -42.263812 -47.157375 -41.075546 -2.307359 -13.468916 -5.411598 9.788899 35.132969 -11.34781 -69.735064 -29.225791 -96.488272 -169.83552 -4.36543 -65.175332 162.561383 19.555773 -136.771295 -13.320908 -13.269581 0.508496 -16.031463 -43.260217 23.768576 158.16787 -29.737054 -122.582752 -137.232888 -69.017929 -78.923387 162.567108 -12.627199 -144.052489 -25.157553 -54.267362 -3.872786 145.122512 0.511089 179.287946 -12.063258 37.684185 4.725374 -173.145441 86.518463 131.575719 -6.769683 15.682502 -2.886159 0.003087 9.7e-05 0.000665 -85.262118 -41.873557 6.823947 33.233144 18.205302 94.156605 69.179994 16.099312 -168.019721 179.994299 75.748534 0.00414 -104.889103 37.543577 9.021828 -1.747206 4.997842 -120.656054 49.831267 -60.97198 144.123076
8.696 88.6931 68.5567 -82.515268 39.655952 -78.146748 13.677874 36.201038 60.512023 -9.961353 -17.177138 -71.555263 -14.75123 28.093413 -91.521376 43.338849 33.911021 45.237839 -0.002682 -0.0 0.003635 0.001889 -0.0 -0.002371 -158.931581 -57.589154 172.747103 150.312411 -10.632251 -165.51684 -28.533143 -37.078451 19.556193 0.679575 15.377379 2.949573 -4.430226 4.3094 0.842386 -126.305446 -22.263291 111.415763 -13.421272 18.321805 8.9545 -86.889386 47.683162 66.269388 -167.425629 -28.164739 145.274435 -7.52561 26.029569 6.40149 -145.087116 -2.274439 -178.411921 12.3086 45.861946 -3.709586 -160.03691 66.162094 -151.105911 -100.918876 -48.665016 -99.035402 3.645014 17.450436 -4.49777 -82.280154 -19.270511 -88.053111 178.68612 -30.023984 -66.389522 168.210116 7.060593 -140.704777 170.082055 -7.765932 -89.941389 -12.960233 -59.225017 -15.206469 124.521393 22.1588 -104.961787 164.613412 -13.705602 -117.650904 3.219849 8.868973 -1.951211 157.788004 10.903498 -140.960197 145.101082 -1.456545 178.671409 -11.810595 23.205998 6.339125 22.556247 -35.62868 21.673814 -6.068551 8.528801 -2.131147 -179.98932 75.750497 -0.009293 134.752849 -14.387693 -75.025768 -47.48864 -7.169231 126.328446 -67.567978 35.609009 2.078872 179.961383 75.749068 0.030715 -106.785874 36.867457 49.366785 -1.173286 -1.014726 -100.924123 128.573494 -2.290168 -43.126039
8.938699999999999 88.4242 70.52239999999999 -88.116899 39.618408 -84.172339 11.761957 36.170744 100.039672 -16.985426 -6.437383 -110.998909 6.414091 22.15728 78.352342 -32.435508 -18.517238 -121.590431 0.003927 -0.0 -0.001089 -0.001606 0.0 -0.000104 -7.032008 28.436571 8.335658 65.333102 -3.082009 5.260956 -133.359092 32.515501 82.007645 95.963536 -65.35321 84.489504 -135.907499 22.320022 80.131657 -111.143865 -2.500553 56.882271 40.683757 -60.751608 1.35087 49.027217 -45.324322 2.681309 -22.58529 41.638947 17.523144 -168.492034 -21.301433 144.258054 -145.091051 -1.948145 -178.5164 -156.688824 22.46171 178.192323 -164.067458 75.313472 -150.353251 -165.090777 61.771214 -147.24013 2.424431 12.438574 -3.052409 -70.388515 -15.374455 -81.929926 164.931557 -23.885308 -73.075029 173.496532 -6.558767 -143.344719 167.77091 -5.447263 -89.85134 93.716429 9.45553 -37.581943 150.60163 -15.765988 -120.880675 -0.875079 19.157374 5.546033 21.909758 40.943114 -16.922832 -142.438026 -75.126658 -110.695125 -0.00509 0.968528 -0.304864 156.461273 -45.528948 -177.438343 -3.73445 10.642151 -3.392028 -19.316927 58.567716 -9.564001 -0.000577 -0.000405 -0.001308 -106.445369 -43.265343 -32.472463 55.486802 51.690757 -83.199249 -42.915627 -12.411685 18.882431 0.006289 -0.000405 0.004032 50.612398 -5.652319 98.017162 11.855405 1.534954 94.304002 37.995484 38.146575 -150.364665
